<svg width="96" height="96" xmlns="http://www.w3.org/2000/svg" xmlns:xlink="http://www.w3.org/1999/xlink" xml:space="preserve" overflow="hidden"><g transform="translate(-592 -312)"><path d="M646.507 363.612C650.373 363.612 653.507 366.746 653.507 370.612 653.507 374.478 650.373 377.612 646.507 377.612 642.641 377.612 639.507 374.478 639.507 370.612 639.513 366.748 642.643 363.617 646.507 363.612M646.507 361.612C641.536 361.612 637.507 365.641 637.507 370.612 637.507 375.583 641.536 379.612 646.507 379.612 651.478 379.612 655.507 375.583 655.507 370.612 655.507 365.641 651.478 361.612 646.507 361.612Z"/><path d="M664.528 400.022 662.528 400.022 662.528 391.51C662.562 390.487 662.081 389.514 661.247 388.92 658.901 387.083 656.182 385.782 653.28 385.107 651.072 384.441 648.786 384.068 646.48 383.997 644.219 384.007 641.973 384.373 639.825 385.082 636.934 385.869 634.208 387.168 631.775 388.917 630.968 389.539 630.493 390.498 630.489 391.517L630.489 400.025 628.489 400.025 628.489 391.51C628.501 389.86 629.276 388.309 630.589 387.31 633.205 385.423 636.139 384.021 639.25 383.17 641.59 382.401 644.037 382.006 646.5 382 648.971 382.071 651.422 382.466 653.789 383.177 656.939 383.914 659.891 385.327 662.439 387.32 663.791 388.293 664.572 389.873 664.524 391.538Z"/><path d="M622.025 349.587C625.891 349.587 629.025 352.721 629.025 356.587 629.025 360.453 625.891 363.587 622.025 363.587 618.159 363.587 615.025 360.453 615.025 356.587 615.031 352.723 618.161 349.592 622.025 349.587M622.025 347.587C617.054 347.587 613.025 351.616 613.025 356.587 613.025 361.558 617.054 365.587 622.025 365.587 626.996 365.587 631.025 361.558 631.025 356.587 631.025 351.616 626.996 347.587 622.025 347.587Z"/><path d="M635.56 371.667C633.618 370.513 631.51 369.665 629.311 369.151 626.944 368.439 624.493 368.043 622.022 367.973 619.556 367.979 617.107 368.374 614.764 369.144 611.651 369.994 608.717 371.396 606.1 373.283 604.787 374.282 604.012 375.833 604 377.483L604 386 606 386 606 377.49C606.004 376.471 606.479 375.512 607.286 374.89 609.719 373.141 612.445 371.842 615.336 371.056 617.487 370.346 619.735 369.981 622 369.972 624.306 370.043 626.592 370.416 628.8 371.083 631.481 371.71 634.008 372.872 636.229 374.5 635.88 373.59 635.656 372.637 635.56 371.667Z"/><path d="M673.343 322C673.403 322.002 673.45 322.051 673.449 322.111L673.449 347.9C673.45 347.954 673.412 348.001 673.359 348.01L649.039 348.01 648.451 348.61 643.587 353.56 643.587 348.008 635.6 348.008C635.553 348.008 635.5 347.953 635.5 347.868L635.5 322.1C635.499 322.052 635.533 322.01 635.58 322L673.343 322M673.359 320 635.587 320C634.431 320.011 633.501 320.955 633.507 322.111L633.507 347.868C633.485 349.027 634.406 349.986 635.566 350.008L641.587 350.008 641.587 358.451 649.878 350.008 673.359 350.008C674.516 349.997 675.449 349.056 675.449 347.898L675.449 322.111C675.449 320.953 674.517 320.012 673.359 320Z"/><path d="M654.377 324.883 654.277 324.883C654.044 324.87 653.81 324.87 653.577 324.883 650.408 325.073 647.957 327.737 648.032 330.911L648.032 331.033 650.042 331.033 650.042 330.906C650.039 330.755 650.044 330.604 650.058 330.453 650.235 328.433 651.93 326.886 653.958 326.894 654.067 326.893 654.176 326.898 654.284 326.909L654.443 326.909C656.744 326.949 658.579 328.845 658.543 331.146 658.543 333.458 656.836 335.012 654.297 335.012L653.297 335.012 653.297 339.93 655.313 339.93 655.313 336.964 655.621 336.926C658.519 336.569 660.664 334.056 660.561 331.138L660.561 331C660.513 327.616 657.762 324.894 654.377 324.883Z"/><path d="M654.3 345C653.393 345 652.658 344.266 652.657 343.359 652.657 342.452 653.391 341.716 654.298 341.716 655.196 341.716 655.928 342.437 655.941 343.335 655.959 344.236 655.244 344.982 654.343 345 654.341 345 654.339 345 654.337 345Z"/></g></svg>