<svg width="96" height="96" xmlns="http://www.w3.org/2000/svg" xmlns:xlink="http://www.w3.org/1999/xlink" xml:space="preserve" overflow="hidden"><defs><clipPath id="clip0"><rect x="472" y="312" width="96" height="96"/></clipPath></defs><g clip-path="url(#clip0)" transform="translate(-472 -312)"><path d="M518.894 352.323C515.094 349.014 509.894 348.8 507.274 351.843 504.654 354.886 505.607 360.036 509.404 363.343 513.201 366.65 518.404 366.866 521.024 363.823 523.644 360.78 522.69 355.631 518.894 352.323Z"/><path d="M525.66 337.3C524.211 336.124 522.083 336.344 520.905 337.792 519.938 339.394 520.435 341.476 522.022 342.468 523.471 343.644 525.599 343.424 526.777 341.976 527.744 340.374 527.247 338.292 525.66 337.3Z"/><path d="M509.529 373.925C508.153 372.664 506.015 372.756 504.753 374.132 503.694 375.675 504.068 377.781 505.592 378.866 506.968 380.127 509.106 380.035 510.368 378.659 511.428 377.117 511.054 375.009 509.529 373.925Z"/><path d="M556.081 371.558C548.791 365.069 548.663 361.152 543.476 359.55 539.146 358.213 535.125 360.377 531.06 363.465 531.814 361.814 532.669 360.211 533.62 358.665 539.561 348.971 551.805 339.841 551.805 339.841L520.365 317C510.812 323.245 503.372 332.233 499.022 342.784 498.956 342.944 498.896 343.093 498.832 343.249 498.792 340.432 498.174 337.961 496.315 336.149 493.142 333.049 490.415 334.69 483.062 332.209 480.124 331.218 476.971 329.731 475.62 326.865 474.02 329.765 473.282 334.63 474.929 337.323 476.539 340.009 481.129 341.055 481.129 341.055 481.129 341.055 478.381 342.555 479.28 345.421 479.811 347.115 482.108 349.154 486.38 349.134 484.937 350.343 484.443 351.791 485.68 352.818 487.719 354.506 492.302 353.579 492.302 353.579 492.811 354.689 493.601 355.647 494.594 356.359 493.393 361.491 491.328 366.381 488.487 370.821 486.95 373.328 484.882 375.468 482.43 377.09L511.087 402.667C511.087 402.667 519.542 399.59 523.893 387.2 525.319 383.057 526.526 378.843 527.511 374.574 527.878 374.457 528.238 374.318 528.589 374.159 528.589 374.159 531.36 379.79 533.674 380.87 535.474 381.71 536.648 380.219 536.92 377.945 539.666 382.911 542.832 384.465 545.476 384.178 549.008 383.794 548.461 378.865 548.461 378.865 548.461 378.865 552.505 383.21 556.254 383.365 560.033 383.559 564.139 379.946 566.004 376.511 562.245 376.739 558.993 374.151 556.081 371.558ZM518.232 385.209C517.483 387.392 516.448 389.466 515.154 391.377L509.048 392.805 494.847 380.13 494.121 373.079C497.126 368.198 499.302 362.854 500.56 357.262 501.558 353.101 502.896 349.029 504.56 345.086 507.172 338.861 510.972 333.206 515.749 328.436L523.803 326.917 537.333 336.747 537.833 344.13C534.297 347.56 531.165 351.385 528.501 355.53 524.338 362.323 523.069 367.489 521.601 373.471 520.684 377.44 519.559 381.358 518.232 385.209Z"/></g></svg>